# xmcd CD database file
#
# Track frame offsets:
#	180
#	9853
#	22469
#	32891
#	45512
#	65685
#	85798
#	103651
#	122193
#	129904
#	144769
#	159685
#
# Disc length: 2299 seconds
#
# Revision: 0
# Processed by: cddbd v1.4PL0 Copyright (c) Steve Scherf et al.
# Submitted via: CDex 1.50
#
DISCID=9b08f90c
DTITLE=Louis Armstrong - Struttin'
DYEAR=1996
DGENRE=Jazz
TTITLE0=Dippermouth Blues
TTITLE1=Mahogany Hall Stomp
TTITLE2=Muskrat Ramble
TTITLE3=St. Louis Blues
TTITLE4=Rockin' Chair
TTITLE5=Tiger Rag
TTITLE6=Black And Blue
TTITLE7=Confessin'
TTITLE8=Struttin' With Some Barbeque
TTITLE9=Lazy River
TTITLE10=You Rascal You
TTITLE11=Save It Pretty Mama
EXTD=YEAR: 1996
EXTT0=
EXTT1=
EXTT2=
EXTT3=
EXTT4=
EXTT5=
EXTT6=
EXTT7=
EXTT8=
EXTT9=
EXTT10=
EXTT11=
PLAYORDER=
